<?xml version="1.0" encoding="utf-8"?>
<!-- Generator: Adobe Illustrator 16.0.0, SVG Export Plug-In . SVG Version: 6.00 Build 0)  -->
<!DOCTYPE svg PUBLIC "-//W3C//DTD SVG 1.1//EN" "http://www.w3.org/Graphics/SVG/1.1/DTD/svg11.dtd">
<svg version="1.1"
	 id="svg10" xmlns:dc="http://purl.org/dc/elements/1.1/" xmlns:cc="http://creativecommons.org/ns#" xmlns:rdf="http://www.w3.org/1999/02/22-rdf-syntax-ns#" xmlns:svg="http://www.w3.org/2000/svg" xmlns:sodipodi="http://sodipodi.sourceforge.net/DTD/sodipodi-0.dtd" xmlns:inkscape="http://www.inkscape.org/namespaces/inkscape" inkscape:version="0.92.2 (5c3e80d, 2017-08-06)" sodipodi:docname="Flag_of_the_Soviet_Union.html"
	 xmlns="http://www.w3.org/2000/svg" xmlns:xlink="http://www.w3.org/1999/xlink" x="0px" y="0px" width="1200px"
	 height="899.559px" viewBox="0.138 0 1200 899.559" enable-background="new 0.138 0 1200 899.559" xml:space="preserve">
<sodipodi:namedview  inkscape:cy="535.49637" inkscape:cx="736.55755" inkscape:zoom="0.65333333" showgrid="false" guidetolerance="10" gridtolerance="10" objecttolerance="10" borderopacity="1" pagecolor="#ffffff" bordercolor="#666666" id="namedview12" inkscape:current-layer="svg10" inkscape:window-maximized="1" inkscape:window-y="-11" inkscape:window-x="-11" inkscape:window-height="986" inkscape:window-width="1920" inkscape:pageshadow="2" inkscape:pageopacity="0">
	</sodipodi:namedview>
<path id="path2" fill="#CC0000" d="M0.138,0h1200v600h-1200V0z"/>
<path id="path4" fill="#FFD700" d="M191.738,61.4h-27l21.8,16l-8.2,25.6l21.8-15.8l21.8,15.8l-8.2-25.6l21.8-16h-27l-8.4-25.8
	L191.738,61.4z M200.138,51.6l4.8,14.8h15.4l-12.4,9l4.72,14.7L200.138,81l-12.52,9.101l4.72-14.7l-12.4-9h15.4L200.138,51.6z"/>
<path id="path6" fill="#FFD700" d="M166.715,138.645l-33.986,32.37l18.126,18.126l15.651-15.756
	c30.522,30.979,54.246,55.065,83.72,84.978c8.159,8.46,22.368-3.044,13.268-12.813c-31.14-30.347-52.722-52.25-85.165-84.066
	l19.235-19.348L166.715,138.645z"/>
<path id="path8" fill="#FFD700" d="M165.568,229.454C226.371,285.86,324.9,184.15,198.98,110.441
	c93.707,104.11,3.745,136.025-28.829,103.909l-1.64-1.355c-1.33,1.493-2.663,2.984-3.991,4.479c-2.524-2.383-6.444-3.082-7.65,0.99
	c-4.96-0.343-7.87,2.405-9.167,7.554c-9.224,6.109-19.21,11.472-24.949,21.067c-3.28,10.15,3.208,14.564,10.547,13.725
	c12.031-4.998,15.75-15.802,22.188-24.714c4.552-1.449,8.407-3.397,9.114-7.54"/>
<rect x="0.138" y="587.575" fill="#CC0000" width="1200" height="311.983"/>
</svg>
